<svg width="182" height="50" viewBox="0 0 182 50" fill="none" xmlns="http://www.w3.org/2000/svg">
<g clip-path="url(#clip0_4010_2222)">
<path d="M32.7971 16.4382H16.3984V32.8765H32.7971V16.4382Z" fill="#036836"/>
<path d="M47.0716 8.26172C44.1828 3.32172 38.9148 0 32.8821 0C26.8494 0 21.4965 3.23655 18.6076 8.26172C17.2481 10.6466 16.3984 13.4572 16.3984 16.5234H32.7971V32.9617C41.8886 32.9617 49.2808 25.5517 49.2808 16.4383C49.2808 13.4572 48.5161 10.6466 47.0716 8.26172Z" fill="#98CF95"/>
<path d="M16.3987 16.4382C7.39216 16.4382 0 23.8482 0 32.9617C0 35.9427 0.849673 38.7534 2.20915 41.2234C5.09804 46.0782 10.366 49.4 16.3987 49.4C22.4314 49.4 27.7843 46.1634 30.5882 41.1382C31.9477 38.7534 32.7974 35.9427 32.7974 32.8765H16.3987V16.4382Z" fill="#98CF95"/>
<path d="M181.659 37.2203C181.404 36.7945 181.149 36.539 180.724 36.2834C180.299 36.0279 179.874 35.9427 179.364 35.9427C178.94 35.9427 178.43 36.0279 178.005 36.2834C177.58 36.539 177.325 36.7945 177.07 37.2203C176.815 37.6462 176.73 38.0721 176.73 38.4979C176.73 38.9238 176.815 39.4348 177.07 39.7755C177.325 40.2014 177.58 40.4569 178.005 40.7124C178.43 40.9679 178.855 41.0531 179.364 41.0531C179.789 41.0531 180.299 40.9679 180.724 40.7124C181.149 40.4569 181.404 40.2014 181.659 39.7755C181.913 39.3496 181.998 38.9238 181.998 38.4127C181.998 38.0721 181.913 37.6462 181.659 37.2203ZM181.234 39.6052C181.064 39.9459 180.809 40.2014 180.469 40.3717C180.129 40.5421 179.789 40.6272 179.449 40.6272C179.11 40.6272 178.685 40.5421 178.43 40.3717C178.09 40.2014 177.835 39.9459 177.665 39.6052C177.495 39.2645 177.41 38.9238 177.41 38.5831C177.41 38.2424 177.495 37.8165 177.665 37.4759C177.835 37.1352 178.09 36.8796 178.43 36.7093C178.77 36.539 179.11 36.4538 179.534 36.4538C179.959 36.4538 180.299 36.539 180.639 36.7093C180.979 36.8796 181.234 37.1352 181.404 37.4759C181.574 37.8165 181.659 38.1572 181.659 38.5831C181.489 38.9238 181.404 39.2645 181.234 39.6052Z" fill="#111921"/>
<path d="M180.64 38.6682C180.725 38.5831 180.725 38.3275 180.725 38.1572C180.725 37.8165 180.64 37.6462 180.385 37.3907C180.13 37.2203 179.875 37.1351 179.45 37.1351H178.176V39.9458H178.94V39.0941H179.365L179.875 39.9458H180.64L180.045 39.0089C180.47 38.9238 180.555 38.8386 180.64 38.6682ZM179.96 38.4979C179.875 38.5831 179.705 38.5831 179.535 38.5831H179.11V37.7313H179.535C179.705 37.7313 179.875 37.7313 179.96 37.8165C180.045 37.9017 180.045 37.9869 180.045 38.1572C180.045 38.2424 179.96 38.4127 179.96 38.4979Z" fill="#111921"/>
<path d="M128.045 36.1982L136.371 28.2772C138.411 26.4034 139.685 24.7 140.45 23.1669C141.13 21.7189 141.554 20.1007 141.554 18.3972C141.554 15.5865 140.535 13.4572 138.496 11.8389C136.456 10.2207 133.822 9.4541 130.424 9.4541C127.875 9.4541 126.43 9.70962 124.391 10.6465C122.097 11.6686 119.463 15.0755 119.123 18.2269H124.221C125.156 16.2679 126.77 14.4793 129.914 14.4793C131.783 14.4793 133.228 14.82 134.247 15.5865C135.182 16.3531 135.692 17.4603 135.692 18.9082C135.692 19.8451 135.437 20.8672 134.927 21.8893C134.417 22.9113 133.567 24.0186 132.123 25.3813L119.803 37.1351V40.9679H140.365L144.273 36.0279H128.045V36.1982Z" fill="#111921"/>
<path d="M93.5483 17.8862H88.0254V41.1383H93.5483V17.8862Z" fill="#111921"/>
<path d="M115.98 21.9745L116.15 21.719C116.405 21.2931 116.49 20.8673 116.49 20.4414C116.49 18.9935 115.3 17.8862 113.941 17.8862H111.392H96.7773V22.3152H109.437L96.8623 37.6462V41.1383H117.254V36.6242H103.83L115.98 21.9745Z" fill="#111921"/>
<path d="M90.7444 9.19861C88.9601 9.19861 87.5156 10.6465 87.5156 12.4352C87.5156 14.2238 88.9601 15.6717 90.7444 15.6717C92.5287 15.6717 93.9731 14.2238 93.9731 12.4352C93.9731 10.6465 92.5287 9.19861 90.7444 9.19861Z" fill="#111921"/>
<path d="M170.274 8.34689C169.34 8.34689 168.405 8.68758 167.725 9.5393L162.287 16.6086L160.078 19.3341L160.163 19.4193L163.562 23.6779L173.673 10.9872L175.797 8.26172H172.568L170.274 8.34689Z" fill="#111921"/>
<path d="M163.562 25.6368L160.163 29.8955L160.078 29.9806L162.287 32.7062L167.725 39.6903C168.405 40.542 169.34 40.8827 170.274 40.8827H172.568H172.993H175.797L173.843 38.4127L163.562 25.6368Z" fill="#111921"/>
<path d="M159.144 20.4412L159.059 20.356L156 16.6084L150.392 9.53909C149.797 8.77254 148.863 8.34668 148.013 8.34668C148.013 8.34668 147.928 8.34668 147.843 8.34668H145.549H142.32L144.529 11.1574L155.49 24.6998L142.32 41.1381H145.549H147.843C147.843 41.1381 147.928 41.1381 148.013 41.1381C148.948 41.1381 149.797 40.7122 150.392 39.9456L156 32.8763L159.059 29.1287L159.144 29.0436L162.543 24.785L159.144 20.4412Z" fill="#111921"/>
<path d="M80.3784 24.7C82.5876 22.9966 83.9471 20.4414 83.9471 17.4604C83.9471 12.4352 79.8686 8.34692 74.8556 8.34692H71.3719H68.3981H66.6137H66.019H65.934H63.5549H63.2151H63.0451C61.6856 8.34692 60.4961 9.45417 60.4961 10.9021V11.0724V11.4131V13.4573V15.4162V41.0531H67.1235H76.47C81.2281 41.0531 85.1366 37.1352 85.1366 32.3655C85.0516 29.0438 83.1824 26.0628 80.3784 24.7ZM65.934 12.6907H73.666C76.3 12.6907 78.4242 14.82 78.4242 17.4604C78.4242 20.1007 76.3 22.23 73.666 22.23H65.934V12.6907ZM75.1105 36.539H65.934V26.9145H75.1105C77.7445 26.9145 79.9536 29.129 79.9536 31.7693C79.9536 34.4097 77.8294 36.539 75.1105 36.539Z" fill="#111921"/>
</g>
<defs>
<clipPath id="clip0_4010_2222">
<rect width="182" height="49.4" fill="white"/>
</clipPath>
</defs>
</svg>
